<?xml version="1.0" encoding="utf-8"?>
<!-- Generator: Adobe Illustrator 25.2.1, SVG Export Plug-In . SVG Version: 6.00 Build 0)  -->
<svg version="1.1" id="图层_1" xmlns="http://www.w3.org/2000/svg" xmlns:xlink="http://www.w3.org/1999/xlink" x="0px" y="0px"
	 viewBox="0 0 288.28 301.9" style="enable-background:new 0 0 288.28 301.9;" xml:space="preserve">
<g>
	<g>
		<path d="M55.12,233.15H41.22v-6.69h-4.61v6.69H22.66v38.63h13.95v8.63h4.61v-8.63h13.89V233.15z M36.61,254.74v12.43h-9.34v-29.41
			h9.34v12.37h-8.58v4.61H36.61z M41.22,254.74h8.52v-4.61h-8.52v-12.37h9.28v29.41h-9.28V254.74z"/>
		<polygon points="21.67,272.2 14.52,272.2 14.52,242.68 21.67,242.68 21.67,238.07 14.52,238.07 14.52,226.46 9.91,226.46 
			9.91,238.07 2.76,238.07 2.76,242.68 9.91,242.68 9.91,272.2 2.76,272.2 2.76,276.81 21.67,276.81 		"/>
		<rect x="91.45" y="264.26" width="15.59" height="4.61"/>
		<polygon points="76.69,279.56 81.3,279.56 81.3,263.15 85.76,263.15 85.76,258.54 81.3,258.54 81.3,248.22 85.76,248.22 
			85.76,243.61 81.3,243.61 81.3,232.5 86.13,232.5 86.13,274.72 83.84,274.72 83.84,279.33 90.74,279.33 90.74,227.89 
			76.69,227.89 		"/>
		<polygon points="112.41,252.65 96.91,252.65 96.91,234.04 106.48,234.04 106.48,250.8 111.09,250.8 111.09,229.43 103.78,229.43 
			103.78,226.23 99.17,226.23 99.17,229.43 92.3,229.43 92.3,257.26 107.8,257.26 107.8,274.49 96.36,274.49 96.36,279.1 
			112.41,279.1 		"/>
		<rect x="99.28" y="235.09" width="4.61" height="15.7"/>
		<polygon points="61.49,279.56 66.1,279.56 66.1,263.15 70.56,263.15 70.56,258.54 66.1,258.54 66.1,248.22 70.56,248.22 
			70.56,243.61 66.1,243.61 66.1,232.5 70.92,232.5 70.92,274.72 68.63,274.72 68.63,279.33 75.53,279.33 75.53,227.89 
			61.49,227.89 		"/>
		<polygon points="141.57,232.39 162.46,232.39 162.46,245.14 170.96,245.14 170.96,240.53 167.07,240.53 167.07,227.78 
			136.96,227.78 136.96,245.14 141.57,245.14 		"/>
		<polygon points="128.56,243.65 125.61,227.15 120.98,227.15 123.87,243.65 		"/>
		<polygon points="123.58,278.81 133.34,278.81 133.34,274.2 128.19,274.2 128.19,245.5 116.6,245.5 116.6,250.11 123.58,250.11 		
			"/>
		<polygon points="170.5,280.14 170.5,275.1 158.08,269.34 168.1,264.71 168.1,247.62 136.96,247.62 136.96,252.23 163.49,252.23 
			163.49,261.77 152.61,266.81 141.57,261.77 141.57,254.31 136.96,254.31 136.96,264.71 147.1,269.39 134.22,275.38 134.22,280.49 
			152.62,271.91 		"/>
		<polygon points="187.49,241.76 183.19,226.4 178.3,226.4 182.59,241.76 		"/>
		<polygon points="208.83,280.36 213.44,280.36 213.44,248.45 228.71,248.45 228.71,243.84 213.44,243.84 213.44,225.89 
			208.83,225.89 208.83,243.84 191.91,243.84 191.91,248.45 208.83,248.45 		"/>
		<polygon points="185.48,243.84 173.78,243.84 173.78,248.45 180.87,248.45 180.87,279.1 193.26,279.1 193.26,274.49 
			185.48,274.49 		"/>
		<path d="M260.09,259.48c-1.7,6.21-3.61,12.74-5.66,19.42l-0.29,0.95H259l0.16-0.52c1.7-5.6,3.59-12.14,5.61-19.46l0.26-0.93h-4.78
			L260.09,259.48z"/>
		<polygon points="258.44,234.67 279.79,234.67 279.79,241.53 284.4,241.53 284.4,230.06 271.42,230.06 271.42,226.52 
			266.81,226.52 266.81,230.06 253.83,230.06 253.83,241.53 258.44,241.53 		"/>
		<rect x="254.69" y="242.76" width="28.85" height="4.61"/>
		<polygon points="271.73,259.05 271.73,278.76 284.74,278.76 284.74,274.15 276.34,274.15 276.34,259.05 		"/>
		<polygon points="233.31,279.33 237.91,279.33 237.91,232.79 246.17,232.79 246.17,245.2 241.84,251.49 246.17,257.78 
			246.17,269.57 239.48,269.57 239.48,274.18 250.78,274.18 250.78,256.36 247.45,251.49 250.78,246.63 250.78,228.18 
			233.31,228.18 		"/>
		<rect x="253.09" y="252.88" width="31.71" height="4.61"/>
		<polygon points="9.56,288.83 8.47,288.83 2.86,294.73 2.86,288.75 2.07,288.75 2.07,300.21 2.86,300.21 2.86,295.82 2.88,295.84 
			4.67,293.96 8.71,300.1 9.65,300.1 5.23,293.37 		"/>
		<path d="M21.81,297.12c0,0.59-0.21,1.1-0.63,1.52c-0.41,0.41-0.91,0.61-1.52,0.61h-2.23c-0.6,0-1.11-0.2-1.52-0.61
			c-0.42-0.42-0.63-0.92-0.63-1.52v-8.38h-0.78v8.38c0,0.82,0.29,1.51,0.86,2.06c0.57,0.57,1.25,0.85,2.06,0.85h2.23
			c0.81,0,1.5-0.28,2.06-0.85c0.57-0.56,0.86-1.25,0.86-2.06v-8.38h-0.78V297.12z"/>
		<polygon points="35.19,299.27 29.25,288.87 28.02,288.87 28.02,300.21 28.8,300.21 28.8,289.69 34.76,300.1 35.98,300.1 
			35.98,288.74 35.19,288.74 		"/>
		<path d="M46.55,288.9h-5.2v11.29h0.78v-10.5h4.42c0.48,0,0.89,0.17,1.23,0.51c0.34,0.34,0.51,0.75,0.51,1.23v1.44
			c0,0.48-0.17,0.89-0.51,1.23c-0.34,0.34-0.75,0.51-1.23,0.51h-3.58v0.78h3.58c0.7,0,1.29-0.24,1.78-0.73
			c0.5-0.5,0.74-1.09,0.74-1.79v-1.44c0-0.7-0.25-1.29-0.74-1.79C47.84,289.15,47.24,288.9,46.55,288.9z"/>
		<rect x="55.91" y="293.99" width="5.79" height="0.78"/>
		<polygon points="54.29,300.04 61.94,300.04 61.94,299.25 55.08,299.25 55.08,289.69 61.94,289.69 61.94,288.9 54.29,288.9 		"/>
		<polygon points="74.31,299.27 68.37,288.87 67.14,288.87 67.14,300.21 67.92,300.21 67.92,289.69 73.88,300.1 75.1,300.1 
			75.1,288.74 74.31,288.74 		"/>
		<path d="M85.04,294.8h3.27v2.69c0,0.48-0.17,0.89-0.51,1.24c-0.34,0.34-0.75,0.51-1.24,0.51h-3.32c-0.54,0-1.01-0.19-1.4-0.57
			c-0.38-0.39-0.57-0.86-0.57-1.4v-5.61c0-0.54,0.19-1,0.57-1.39c0.39-0.38,0.86-0.58,1.4-0.58h5.67v-0.78h-5.67
			c-0.76,0-1.41,0.27-1.95,0.8c-0.54,0.54-0.81,1.19-0.81,1.95v5.61c0,0.76,0.27,1.41,0.81,1.95c0.54,0.54,1.19,0.81,1.95,0.81h3.32
			c0.7,0,1.29-0.25,1.79-0.74s0.74-1.09,0.74-1.79v-3.48h-4.05V294.8z"/>
		<path d="M109.78,288.9h-5.17v11.13h5.17c0.84,0,1.56-0.3,2.16-0.89c0.59-0.59,0.89-1.31,0.89-2.16v-5.04
			c0-0.84-0.3-1.56-0.89-2.16C111.35,289.2,110.63,288.9,109.78,288.9z M112.04,296.99c0,0.62-0.22,1.15-0.65,1.61
			c-0.45,0.44-0.99,0.65-1.61,0.65h-4.39v-9.56h4.39c0.63,0,1.16,0.22,1.61,0.67c0.44,0.44,0.65,0.97,0.65,1.59V296.99z"/>
		<rect x="119.66" y="293.99" width="5.79" height="0.78"/>
		<polygon points="118.04,300.04 125.68,300.04 125.68,299.25 118.82,299.25 118.82,289.69 125.68,289.69 125.68,288.9 
			118.04,288.9 		"/>
		<path d="M136.33,294.12l-2.98-0.24c-0.71-0.08-1.19-0.21-1.42-0.4c-0.31-0.23-0.46-0.68-0.46-1.33v-1.05
			c0-0.38,0.14-0.72,0.4-1.01c0.25-0.27,0.58-0.4,0.97-0.4h5.25v-0.78h-5.25c-0.59,0-1.1,0.21-1.53,0.64
			c-0.42,0.44-0.63,0.95-0.63,1.55v1.05c0,0.48,0.06,0.87,0.18,1.18c0.11,0.32,0.3,0.58,0.58,0.78c0.37,0.27,0.98,0.46,1.83,0.56
			l2.99,0.24c1.13,0.09,1.7,0.7,1.7,1.83v1.11c0,0.4-0.14,0.74-0.4,1.01c-0.25,0.27-0.57,0.4-0.97,0.4h-5.46v0.78h5.46
			c0.61,0,1.12-0.21,1.53-0.64c0.42-0.44,0.63-0.95,0.63-1.56v-1.11c0-0.81-0.23-1.45-0.69-1.91
			C137.64,294.42,137.06,294.19,136.33,294.12z"/>
		<rect x="144.33" y="288.75" width="0.78" height="11.46"/>
		<path d="M155.2,294.8h3.27v2.69c0,0.48-0.17,0.89-0.51,1.24c-0.34,0.34-0.75,0.51-1.24,0.51h-3.32c-0.54,0-1.01-0.19-1.4-0.57
			c-0.38-0.39-0.57-0.86-0.57-1.4v-5.61c0-0.54,0.19-1,0.57-1.39c0.39-0.38,0.86-0.58,1.4-0.58h5.67v-0.78h-5.67
			c-0.76,0-1.41,0.27-1.95,0.8c-0.54,0.54-0.81,1.19-0.81,1.95v5.61c0,0.76,0.27,1.41,0.81,1.95c0.54,0.54,1.19,0.81,1.95,0.81h3.32
			c0.7,0,1.29-0.25,1.79-0.74c0.5-0.5,0.74-1.09,0.74-1.79v-3.48h-4.05V294.8z"/>
		<polygon points="171.87,299.27 165.93,288.87 164.7,288.87 164.7,300.21 165.48,300.21 165.48,289.69 171.44,300.1 172.66,300.1 
			172.66,288.74 171.87,288.74 		"/>
		<rect x="188.5" y="288.75" width="0.78" height="11.46"/>
		<polygon points="202.1,299.27 196.16,288.87 194.93,288.87 194.93,300.21 195.72,300.21 195.72,289.69 201.67,300.1 202.89,300.1 
			202.89,288.74 202.1,288.74 		"/>
		<path d="M213.84,294.12l-2.98-0.24c-0.71-0.08-1.19-0.21-1.42-0.4c-0.31-0.23-0.46-0.68-0.46-1.33v-1.05
			c0-0.38,0.14-0.72,0.4-1.01c0.25-0.27,0.58-0.4,0.97-0.4h5.25v-0.78h-5.25c-0.59,0-1.1,0.21-1.53,0.64
			c-0.42,0.44-0.63,0.95-0.63,1.55v1.05c0,0.48,0.06,0.87,0.18,1.18c0.11,0.32,0.3,0.58,0.58,0.78c0.37,0.27,0.98,0.46,1.83,0.56
			l2.99,0.24c1.13,0.09,1.7,0.7,1.7,1.83v1.11c0,0.4-0.14,0.74-0.4,1.01c-0.25,0.27-0.57,0.4-0.97,0.4h-5.46v0.78h5.46
			c0.61,0,1.12-0.21,1.53-0.64c0.42-0.44,0.63-0.95,0.63-1.56v-1.11c0-0.81-0.23-1.45-0.69-1.91
			C215.14,294.42,214.57,294.19,213.84,294.12z"/>
		<polygon points="221.19,289.69 224.68,289.69 224.68,300.18 225.47,300.18 225.47,289.69 228.95,289.69 228.95,288.9 
			221.19,288.9 		"/>
		<rect x="234.21" y="288.75" width="0.78" height="11.46"/>
		<polygon points="240.15,289.69 243.64,289.69 243.64,300.18 244.42,300.18 244.42,289.69 247.91,289.69 247.91,288.9 
			240.15,288.9 		"/>
		<path d="M260.19,297.12c0,0.59-0.21,1.1-0.63,1.52c-0.41,0.41-0.91,0.61-1.52,0.61h-2.23c-0.6,0-1.11-0.2-1.52-0.61
			c-0.42-0.42-0.63-0.92-0.63-1.52v-8.38h-0.78v8.38c0,0.82,0.29,1.51,0.86,2.06c0.57,0.57,1.25,0.85,2.06,0.85h2.23
			c0.81,0,1.5-0.28,2.06-0.85c0.57-0.56,0.86-1.25,0.86-2.06v-8.38h-0.78V297.12z"/>
		<polygon points="265.92,289.69 269.41,289.69 269.41,300.18 270.19,300.18 270.19,289.69 273.68,289.69 273.68,288.9 
			265.92,288.9 		"/>
		<rect x="280.18" y="293.99" width="5.79" height="0.78"/>
		<polygon points="286.21,288.9 278.56,288.9 278.56,300.04 286.21,300.04 286.21,299.25 279.35,299.25 279.35,289.69 
			286.21,289.69 		"/>
	</g>
	<g>
		<path d="M149.48,67.1c0,0,22.03-1.56,38.95-17.55c5.5-5.36,10.15-11.61,15.38-17.74c7.39,28.63,22.46,87.01,22.46,87.01
			l7.23,24.38c0.37,1.24-0.33,2.54-1.57,2.92l-27.66,8.48c-1.16,0.36-1.86,1.53-1.62,2.72l1.74,8.56c0.27,1.34,1.62,2.16,2.94,1.8
			L253,155c1.31-0.36,2.04-1.75,1.6-3.03c-3.11-9.01-14.03-40.74-14.14-41.08c-4.8-15.74-9.61-31.48-14.45-47.21
			c-4.66-15.15-9.44-30.26-13.97-45.44c-0.94-3.16-1.97-4.6-5.46-3.14c-2.57,1.07-5.36,1.7-8.11,2.19c-2.11,0.37-3.14,1.39-3.8,3.16
			c-2.75,7.36-6.75,14.18-12.17,19.87c-12.45,11.76-29.54,13.65-34.01,14.54L149.48,67.1z"/>
		<path d="M138.97,192.75c-1.39,0-2.52-1.13-2.52-2.52c-0.03-8.35-0.18-16.32,0.04-24.27c0.73-26.71,1.64-53.42,2.45-80.13
			c0.15-4.92,0.07-4.92,5.1-4.85c7.79,0.11,7.91,0.11,8.17,7.9c1.01,29.39,1.95,58.78,2.9,88.17c0.1,2.97,0.4,9.4,0.58,13.03
			c0.07,1.44-1.07,2.64-2.51,2.64C149.65,192.74,143.31,192.75,138.97,192.75z"/>
		<path d="M111.13,73.9c4.33,1.51,7.95,2.59,11.39,4.09c0.8,0.35,1.49,2.1,1.42,3.15c-1.3,19.09-5.92,76.72-6.96,89.64
			c-0.11,1.39-1.4,2.37-2.76,2.13l-12.43-2.24c-1.23-0.22-2.07-1.35-1.92-2.59C101.27,156.33,107.96,100.56,111.13,73.9z"/>
		<path d="M177.27,75.02c3.11,26.16,10.76,81.88,12.39,93.63c0.17,1.24-0.66,2.39-1.89,2.63l-13.49,2.59
			c-1.36,0.26-2.65-0.7-2.79-2.08c-0.71-7.35-2.72-28.41-3.27-36.07c-1.27-17.65-2.47-35.3-3.83-52.94
			c-0.2-2.67,0.45-4.01,3.18-4.63C170.64,77.45,173.59,76.23,177.27,75.02z"/>
		<path d="M89.22,57.88c3.77,3.27,7.24,6.1,10.44,9.2c0.65,0.63,0.55,2.32,0.37,3.45c-3.6,22.28-7.27,44.54-10.88,66.81
			c-0.29,1.76-0.91,2.62-2.88,2.22c-3.82-0.78-7.67-1.46-11.52-2.08c-2.4-0.39-2.04-1.89-1.7-3.54c3.01-14.32,6-28.65,9.02-42.97
			c2.03-9.67,4.09-19.32,6.15-28.98C88.46,60.82,88.78,59.67,89.22,57.88z"/>
		<path d="M199.69,139.95c-1.03-5.95-2.03-11.55-2.95-17.16c-2.76-16.84-5.44-33.7-8.3-50.53c-0.45-2.64,0.15-4.3,2.24-5.95
			c2.85-2.25,5.39-4.89,8.57-7.83c0.56,2.54,1.05,4.7,1.51,6.86c4.78,22.67,9.48,45.35,14.39,67.99c0.69,3.2-0.3,4.09-3.2,4.47
			C207.99,138.31,204.08,139.16,199.69,139.95z"/>
		<g>
			<path d="M157.95,8.36c-9.42,0.11-18.84-0.15-28.27-0.13c-2.93,0.01-5.75-1.65-6.8-4.39c-0.7-1.84-3.48-1.99-3.48-1.99l-4.01,0.3
				c0,0-3.21,1.3-2.92,3.72c0.87,7.36,5.17,12.27,12.97,13.87c2.94,0.6,3.74,1.78,3.4,4.66c-0.56,4.72-0.72,9.49-1.05,14.24
				c-0.31,4.46-0.63,8.92-0.99,14.07c-0.01,0-0.01-0.01-0.02-0.01l-0.63,11.66c3.97,1.09,8.12,1.92,12.46,2.5
				c0.11-1.69,0.19-2.4,0.2-3.12c0.31-13.18,0.71-26.35,0.85-39.53c0.03-2.78,0.95-3.62,3.55-3.63c5.25-0.01,10.52-0.56,15.73-0.18
				c2.22,0.16,4.33,2.08,6.44,3.27c0.98,0.55,2.77,1.83,2.77,1.83s5.72-0.65,8.51-1.02C176.41,14.35,168.92,8.23,157.95,8.36z"/>
			<path d="M62.13,118.32c0,0,10.53-40.89,15.8-61.33c2.15-8.34,4.3-16.68,6.56-25.45c8.15,14.7,19.23,24.24,32.92,29.86l0.67-12.34
				c-12.16-6.54-22.37-14.86-25.64-29.39c-0.16-0.71-0.84-1.65-1.47-1.84c-4.29-1.31-8.63-2.44-13.42-3.77
				C66.93,48.57,45.78,117.29,45.78,117.29l-12.27,34.43c-0.47,1.31,0.3,2.74,1.65,3.07l47.21,11.76c1.35,0.34,2.69-0.56,2.9-1.94
				l1.63-10.95c0.18-1.22-0.62-2.38-1.83-2.65l-27.49-6.01c-1.31-0.29-2.12-1.61-1.77-2.9L62.13,118.32z"/>
		</g>
	</g>
</g>
</svg>
